<svg width="24" height="18" viewBox="0 0 24 18" fill="none" xmlns="http://www.w3.org/2000/svg">
<path d="M1.20577 0.301171C0.942143 0.325966 0.741004 0.547937 0.742193 0.812944V14.628C0.742193 14.9107 0.971104 15.1398 1.25376 15.1398H3.3005V17.1865C3.30129 17.3773 3.40821 17.5521 3.57801 17.6396C3.74781 17.727 3.95213 17.7126 4.10807 17.6023L7.55383 15.1398H22.7445C23.0272 15.1398 23.2563 14.9107 23.2563 14.628V0.812971C23.2563 0.530302 23.0272 0.301197 22.7445 0.301197H1.25391C1.23784 0.300404 1.22184 0.300377 1.20577 0.301171ZM1.76553 1.32451H22.2329V14.1168H7.39412C7.288 14.1172 7.18465 14.1507 7.09836 14.2126L4.32403 16.1955V14.6284C4.32403 14.346 4.09492 14.1169 3.81246 14.1169H1.76572L1.76553 1.32451ZM6.37058 5.92977C5.3875 5.92977 4.57973 6.73749 4.57973 7.72062C4.57973 8.70349 5.38745 9.51147 6.37058 9.51147C7.3537 9.51147 8.16143 8.70354 8.16143 7.72062C8.16143 6.73754 7.3537 5.92977 6.37058 5.92977ZM11.9992 5.92977C11.0161 5.92977 10.2081 6.73749 10.2081 7.72062C10.2081 8.70349 11.016 9.51147 11.9992 9.51147C12.982 9.51147 13.79 8.70354 13.79 7.72062C13.79 6.73754 12.9821 5.92977 11.9992 5.92977ZM17.6278 5.92977C16.6449 5.92977 15.8369 6.73749 15.8369 7.72062C15.8369 8.70349 16.6448 9.51147 17.6278 9.51147C18.6108 9.51147 19.4186 8.70354 19.4186 7.72062C19.4186 6.73754 18.6109 5.92977 17.6278 5.92977ZM6.37058 6.95311C6.80063 6.95311 7.13803 7.29052 7.13803 7.72056C7.13803 8.15042 6.80062 8.48802 6.37058 8.48802C5.94073 8.48802 5.60312 8.15041 5.60312 7.72056C5.60312 7.29051 5.94074 6.95311 6.37058 6.95311ZM11.9992 6.95311C12.429 6.95311 12.7666 7.29052 12.7666 7.72056C12.7666 8.15042 12.429 8.48802 11.9992 8.48802C11.5691 8.48802 11.2315 8.15041 11.2315 7.72056C11.2315 7.29051 11.5691 6.95311 11.9992 6.95311ZM17.6278 6.95311C18.0578 6.95311 18.3952 7.29052 18.3952 7.72056C18.3952 8.15042 18.0578 8.48802 17.6278 8.48802C17.1979 8.48802 16.8603 8.15041 16.8603 7.72056C16.8603 7.29051 17.1979 6.95311 17.6278 6.95311Z" fill="black"/>
</svg>
